<svg xmlns="http://www.w3.org/2000/svg" width="52.438" height="45.964" viewBox="0 0 52.438 45.964">
  <g id="Group_259" data-name="Group 259" transform="translate(1 1.035)">
    <path id="Path_122" data-name="Path 122" d="M112.923,62.887A18.717,18.717,0,0,1,83.5,56.036l-.231-.569c-1.59,1.588-4.988,2.582-6.578.994a4.069,4.069,0,0,1,0-5.753,4.115,4.115,0,0,1,5.345-.382l.042,0c-.046-.537-.07-1.079-.07-1.627a18.636,18.636,0,0,1,4.526-12.2" transform="translate(-75.5 -23.484)" fill="none" stroke="#fff" stroke-linecap="round" stroke-linejoin="round" stroke-width="2"/>
    <path id="Path_123" data-name="Path 123" d="M83.92,36.447A19.071,19.071,0,0,1,95.439,32.5,18.711,18.711,0,0,1,114.15,51.211c0,.548-.023,1.092-.07,1.627l-.008.14a3.943,3.943,0,0,1,5.4.238,4.069,4.069,0,0,1,0,5.753c-1.588,1.588-4.982.576-6.57-1.012l-.234.576a19.7,19.7,0,0,1-2.5,4.151" transform="translate(-70.221 -25.992)" fill="none" stroke="#fff" stroke-linecap="round" stroke-linejoin="round" stroke-width="2"/>
    <path id="Path_124" data-name="Path 124" d="M93.195,35.008A6,6,0,0,0,87.5,28.5" transform="translate(-67.976 -28.5)" fill="none" stroke="#fff" stroke-linecap="round" stroke-linejoin="round" stroke-width="2"/>
    <path id="Path_125" data-name="Path 125" d="M95.068,29.506S91,28.964,91,34.387" transform="translate(-65.781 -27.879)" fill="none" stroke="#fff" stroke-linecap="round" stroke-linejoin="round" stroke-width="2"/>
    <circle id="Ellipse_119" data-name="Ellipse 119" cx="1.627" cy="1.627" r="1.627" transform="translate(17.084 20.338)" fill="#fff" stroke="#fff" stroke-width="2"/>
    <circle id="Ellipse_120" data-name="Ellipse 120" cx="1.627" cy="1.627" r="1.627" transform="translate(30.1 20.338)" fill="#fff" stroke="#fff" stroke-width="2"/>
    <path id="Path_126" data-name="Path 126" d="M99.766,46.889a8.948,8.948,0,0,1-12.655,0" transform="translate(-68.22 -16.97)" fill="none" stroke="#fff" stroke-linecap="round" stroke-linejoin="round" stroke-width="2"/>
  </g>
</svg>
