<svg xmlns="http://www.w3.org/2000/svg" width="20.807" height="20.808" viewBox="0 0 20.807 20.808">
  <g id="Group_258" data-name="Group 258" transform="translate(-26.636 5.622) rotate(-34)">
    <circle id="Ellipse_111" data-name="Ellipse 111" cx="4.037" cy="4.037" r="4.037" transform="translate(24.098 20.538)" fill="#fff"/>
    <path id="Path_71" data-name="Path 71" d="M-17.482,26.571a1.018,1.018,0,0,0,1.018-1.018V23.518A1.018,1.018,0,0,0-17.482,22.5,1.018,1.018,0,0,0-18.5,23.518v2.035A1.018,1.018,0,0,0-17.482,26.571Z" transform="translate(45.516 -8)" fill="#fff"/>
    <path id="Path_72" data-name="Path 72" d="M-19.944,26.994a1.008,1.008,0,0,0,.718.3,1.016,1.016,0,0,0,.721-.3,1.018,1.018,0,0,0,0-1.439l-1.439-1.439a1.018,1.018,0,0,0-1.439,0,1.015,1.015,0,0,0,0,1.439Z" transform="translate(42.221 -6.636)" fill="#fff"/>
    <path id="Path_73" data-name="Path 73" d="M-21.982,29.035h2.035a1.018,1.018,0,0,0,1.018-1.018A1.018,1.018,0,0,0-19.947,27h-2.035A1.018,1.018,0,0,0-23,28.018,1.018,1.018,0,0,0-21.982,29.035Z" transform="translate(40.856 -3.341)" fill="#fff"/>
    <path id="Path_74" data-name="Path 74" d="M-19.944,32.652l1.439-1.439a1.018,1.018,0,0,0,0-1.439,1.015,1.015,0,0,0-1.439,0l-1.439,1.439a1.015,1.015,0,0,0,0,1.439,1.014,1.014,0,0,0,.719.3A1.022,1.022,0,0,0-19.944,32.652Z" transform="translate(42.221 -0.778)" fill="#fff"/>
    <path id="Path_75" data-name="Path 75" d="M-17.482,34.571a1.018,1.018,0,0,0,1.018-1.018V31.518A1.018,1.018,0,0,0-17.482,30.5,1.018,1.018,0,0,0-18.5,31.518v2.035A1.018,1.018,0,0,0-17.482,34.571Z" transform="translate(45.516 0.283)" fill="#fff"/>
    <path id="Path_76" data-name="Path 76" d="M-15.728,29.774a1.018,1.018,0,0,0,0,1.439l1.439,1.439a1.022,1.022,0,0,0,.721.3,1.018,1.018,0,0,0,.719-.3,1.018,1.018,0,0,0,0-1.439l-1.439-1.439A1.015,1.015,0,0,0-15.728,29.774Z" transform="translate(48.078 -0.778)" fill="#fff"/>
    <path id="Path_77" data-name="Path 77" d="M-15,28.018a1.018,1.018,0,0,0,1.018,1.018h2.035a1.018,1.018,0,0,0,1.018-1.018A1.018,1.018,0,0,0-11.947,27h-2.035A1.018,1.018,0,0,0-15,28.018Z" transform="translate(49.14 -3.341)" fill="#fff"/>
    <path id="Path_78" data-name="Path 78" d="M-15.007,27.293a1.015,1.015,0,0,0,.718-.3l1.439-1.439a1.018,1.018,0,0,0,0-1.439,1.018,1.018,0,0,0-1.439,0l-1.439,1.439a1.018,1.018,0,0,0,0,1.439A1.016,1.016,0,0,0-15.007,27.293Z" transform="translate(48.078 -6.636)" fill="#fff"/>
  </g>
</svg>
