<svg id="Group_256" data-name="Group 256" xmlns="http://www.w3.org/2000/svg" width="14.834" height="14.155" viewBox="0 0 14.834 14.155">
  <path id="Path_109" data-name="Path 109" d="M538.175,776.326h-1.153a.864.864,0,1,1,0-1.729h1.153a.864.864,0,1,1,0,1.729Z" transform="translate(-536.158 -768.491)" fill="#fff"/>
  <path id="Path_110" data-name="Path 110" d="M516.127,776.326h-1.152a.864.864,0,1,1,0-1.729h1.152a.864.864,0,1,1,0,1.729Z" transform="translate(-510.126 -768.491)" fill="#fff"/>
  <path id="Path_111" data-name="Path 111" d="M492.926,776.326a.864.864,0,1,1,0-1.729h1.153a.864.864,0,1,1,0,1.729Z" transform="translate(-484.092 -768.491)" fill="#fff"/>
  <path id="Path_112" data-name="Path 112" d="M470.878,776.326a.864.864,0,1,1,0-1.729h1.153a.864.864,0,1,1,0,1.729Z" transform="translate(-458.06 -768.491)" fill="#fff"/>
  <path id="Path_113" data-name="Path 113" d="M538.564,759.3l-1.115.292a.864.864,0,1,1-.439-1.672l1.115-.293a.865.865,0,0,1,.439,1.673Z" transform="translate(-536.364 -754.564)" fill="#fff"/>
  <path id="Path_114" data-name="Path 114" d="M517.237,753.7l-1.115.293a.864.864,0,0,1-1.056-.617h0a.865.865,0,0,1,.617-1.056l1.115-.293a.865.865,0,0,1,.439,1.672Z" transform="translate(-511.185 -749.978)" fill="#fff"/>
  <path id="Path_115" data-name="Path 115" d="M494.357,746.725l1.115-.293a.865.865,0,1,1,.439,1.672l-1.115.293a.865.865,0,1,1-.439-1.672Z" transform="translate(-486.004 -745.392)" fill="#fff"/>
  <path id="Path_116" data-name="Path 116" d="M473.031,741.128l1.115-.293a.865.865,0,1,1,.439,1.672l-1.115.293a.865.865,0,1,1-.439-1.672Z" transform="translate(-460.825 -740.807)" fill="#fff"/>
  <path id="Path_117" data-name="Path 117" d="M537.449,791.185l1.115.293a.864.864,0,1,1-.439,1.672l-1.115-.293a.864.864,0,1,1,.439-1.672Z" transform="translate(-536.364 -782.058)" fill="#fff"/>
  <path id="Path_118" data-name="Path 118" d="M515.067,797.4a.865.865,0,0,1,1.056-.617l1.115.293a.864.864,0,1,1-.439,1.672l-1.115-.293A.864.864,0,0,1,515.067,797.4Z" transform="translate(-511.185 -786.644)" fill="#fff"/>
  <path id="Path_119" data-name="Path 119" d="M494.8,802.38l1.115.292a.865.865,0,0,1-.439,1.673l-1.115-.293a.865.865,0,1,1,.439-1.672Z" transform="translate(-486.004 -791.23)" fill="#fff"/>
  <path id="Path_120" data-name="Path 120" d="M473.47,807.977l1.115.293a.865.865,0,1,1-.439,1.672l-1.115-.293a.864.864,0,1,1,.439-1.672Z" transform="translate(-460.825 -795.815)" fill="#fff"/>
</svg>
