<svg xmlns="http://www.w3.org/2000/svg" width="50.159" height="41.652" viewBox="0 0 50.159 41.652">
  <g id="Group_223" data-name="Group 223" transform="translate(-135.921 -254)">
    <path id="Path_92" data-name="Path 92" d="M180.785,275.348a29.825,29.825,0,0,1,3.792,3.974,2.042,2.042,0,0,1,0,2.488c-2.834,3.7-12.023,12.321-23.577,12.321s-20.743-8.617-23.577-12.321a2.042,2.042,0,0,1,0-2.488C140.257,275.617,149.446,267,161,267" transform="translate(0 0.522)" fill="none" stroke="#fff" stroke-linecap="round" stroke-linejoin="round" stroke-width="2"/>
    <path id="Path_93" data-name="Path 93" d="M174.13,280.564A13.566,13.566,0,1,1,160.564,267" transform="translate(0.435 0.522)" fill="none" stroke="#fff" stroke-linecap="round" stroke-linejoin="round" stroke-width="2"/>
    <path id="Path_94" data-name="Path 94" d="M166.166,278.174a6.253,6.253,0,1,1-3.818-3.818" transform="translate(0.739 0.826)" fill="none" stroke="#fff" stroke-linecap="round" stroke-linejoin="round" stroke-width="2"/>
    <path id="Path_95" data-name="Path 95" d="M171.261,255s6.261,9.074,6.261,14.064c0,5.763-4.446,6.806-6.261,6.806S165,274.827,165,269.064C165,264.074,171.261,255,171.261,255Z" transform="translate(1.217 0)" fill="none" stroke="#fff" stroke-linecap="round" stroke-linejoin="round" stroke-width="2"/>
  </g>
</svg>
