<svg xmlns="http://www.w3.org/2000/svg" width="16.612" height="26.209" viewBox="0 0 16.612 26.209">
  <path id="Path_12" data-name="Path 12" d="M547.7,1060.854l-4.41,4.423v-19.825a1.216,1.216,0,1,0-2.432,0v19.825l-4.41-4.423a1.218,1.218,0,0,0-1.72,1.725l6.487,6.506h0q.042.042.089.081c.015.013.032.024.048.036s.031.024.048.035.04.025.06.036l.042.025c.021.011.042.021.064.031l.044.02c.021.009.042.016.063.023l.049.017c.021.006.042.011.063.016l.052.013c.023,0,.047.008.07.011l.048.007a1.122,1.122,0,0,0,.241,0l.048-.007c.023,0,.047-.006.07-.011l.053-.013c.021-.005.042-.01.063-.016l.05-.017.063-.023.045-.021c.021-.01.042-.019.063-.03l.043-.026c.02-.012.04-.023.059-.036s.033-.024.049-.036l.046-.034q.047-.038.089-.081l6.486-6.505a1.218,1.218,0,0,0-1.72-1.725Z" transform="translate(-533.77 -1043.733)" fill="#0f7f25" stroke="#197e2b" stroke-width="1"/>
</svg>
