<svg xmlns="http://www.w3.org/2000/svg" width="15.379" height="33.888" viewBox="0 0 15.379 33.888">
  <path id="Path_44" data-name="Path 44" d="M316.993,425.629c-.143-.359-.31-.742-.469-1.113a7.942,7.942,0,0,0-.46-1.092c-.143-.281-.285-.53-.416-.742a4.165,4.165,0,0,0-.6-.742,13.327,13.327,0,0,0,1.06-.872,6.621,6.621,0,0,0,1.186-1.467,10.539,10.539,0,0,0,1.406-3.342,11.409,11.409,0,0,0,.387-1.883,15.492,15.492,0,0,0,.11-1.989,13.867,13.867,0,0,0-.709-4.618,7.478,7.478,0,0,0-2.026-3.4,5.666,5.666,0,0,0-3.954-1.276h-6.958v33.888h3.885V422.539h1.863a17.8,17.8,0,0,1,1.325,2.356,30.759,30.759,0,0,1,1.206,3l3.024,9.078h4.076L317.4,426.725c-.118-.359-.253-.722-.408-1.1m-3.334-7.419a2.925,2.925,0,0,1-2.2.742h-2.083V406.373h2.3a2.849,2.849,0,0,1,2.23.725,8.2,8.2,0,0,1,.6.986,7.408,7.408,0,0,1,.485,1.174,11,11,0,0,1,.359,2.91,14.041,14.041,0,0,1-.452,3.6,6.415,6.415,0,0,1-1.243,2.446" transform="translate(-305.547 -403.088)" fill="#fff"/>
</svg>
