<svg xmlns="http://www.w3.org/2000/svg" width="16.08" height="34.871" viewBox="0 0 16.08 34.871">
  <path id="Path_49" data-name="Path 49" d="M347.627,423.921c0,2.071-.045,3.66-.139,4.859a17.172,17.172,0,0,1-.387,2.707,4.828,4.828,0,0,1-1.451,2.45,4.1,4.1,0,0,1-4.626-.02,4.273,4.273,0,0,1-1.557-2.234c-.241-.673-.53-2.291-.53-6.212V403.088h-3.8V425.3c0,3.742.314,6.326.958,7.9a7.057,7.057,0,0,0,2.992,3.6,8.246,8.246,0,0,0,4.353,1.158,6.268,6.268,0,0,0,4.292-1.471,9.275,9.275,0,0,0,2.584-3.909c.6-1.643.9-4.419.9-8.27v-21.22h-3.591Z" transform="translate(-335.138 -403.088)" fill="#fff"/>
</svg>
