<svg xmlns="http://www.w3.org/2000/svg" width="9.982" height="23.476" viewBox="0 0 9.982 23.476">
  <path id="Path_51" data-name="Path 51" d="M331.663,418.492a3.08,3.08,0,0,0-3.974-.766,4.636,4.636,0,0,0-.6.432,2.638,2.638,0,0,0-.538.575v-.95h-2.764v23h2.792v-6.848a2.99,2.99,0,0,0,1.113.9,3.085,3.085,0,0,0,1.427.346c1.524,0,2.707-.909,3.522-2.71a14.967,14.967,0,0,0,1.129-6.228,17.654,17.654,0,0,0-.538-4.541,7.1,7.1,0,0,0-1.573-3.208m-1.427,12.75c-.619,1.341-1.292,1.341-1.516,1.341s-.946,0-1.516-1.545a13.454,13.454,0,0,1-.673-4.688,20.559,20.559,0,0,1,.289-3.542,5.489,5.489,0,0,1,.929-2.27,1.383,1.383,0,0,1,1.031-.644c.493,0,.978.416,1.439,1.239a12.577,12.577,0,0,1,.758,5.25,12.111,12.111,0,0,1-.742,4.859" transform="translate(-323.792 -417.307)" fill="#fff"/>
</svg>
