<svg xmlns="http://www.w3.org/2000/svg" width="16.613" height="26.209" viewBox="0 0 16.613 26.209">
  <path id="Path_10" data-name="Path 10" d="M920.292,1060.854l-4.411,4.423v-19.825a1.216,1.216,0,1,0-2.432,0v19.825l-4.41-4.423a1.218,1.218,0,0,0-1.72,1.725l6.486,6.505q.043.043.089.081c.015.012.031.023.047.035s.032.025.048.036.039.025.06.036l.042.025c.021.011.042.021.064.031l.044.02.063.023.049.017c.021.006.042.011.063.016l.052.013c.023,0,.047.008.07.011l.048.007a1.122,1.122,0,0,0,.241,0l.048-.007c.023,0,.047-.006.07-.011l.053-.013c.021-.005.042-.01.063-.016l.049-.017.063-.023.045-.021c.021-.01.042-.019.063-.03l.043-.026c.02-.012.04-.023.059-.036s.033-.024.049-.036.031-.022.046-.034c.031-.026.061-.053.09-.081l6.486-6.505a1.218,1.218,0,1,0-1.72-1.725Z" transform="translate(-906.359 -1043.733)" fill="#0f7f25" stroke="#197e2b" stroke-width="1"/>
</svg>
