<svg xmlns="http://www.w3.org/2000/svg" width="9.725" height="17.849" viewBox="0 0 9.725 17.849">
  <path id="Path_54" data-name="Path 54" d="M334.715,431.053a1.849,1.849,0,0,1-.4,1.145c-.082.1-.318.424-1.2.424-.244.053-1.141.041-1.838-1.622a11.827,11.827,0,0,1-.8-4.3h7.039v-1.378a14.541,14.541,0,0,0-.567-4.565,5.472,5.472,0,0,0-1.59-2.552,3.674,3.674,0,0,0-2.413-.889c-1.537,0-2.821.9-3.815,2.7a13.454,13.454,0,0,0-1.341,6.346,13.236,13.236,0,0,0,1.284,6.171,4.252,4.252,0,0,0,3.909,2.629,4.5,4.5,0,0,0,2.189-.522,3.927,3.927,0,0,0,1.59-1.569,4.077,4.077,0,0,0,.583-2.05v-1.1h-2.625Zm-3.216-9.893c.3-.522.758-1.133,1.251-1.133a1.334,1.334,0,0,1,.995.461,3.584,3.584,0,0,1,.795,1.606,8.054,8.054,0,0,1,.342,2.2h-4.3a8.918,8.918,0,0,1,.917-3.135" transform="translate(-327.786 -417.313)" fill="#fff"/>
</svg>
