<svg xmlns="http://www.w3.org/2000/svg" width="22.892" height="32.714" viewBox="0 0 22.892 32.714">
  <path id="Path_6" data-name="Path 6" d="M878.689,487.647a10.805,10.805,0,0,0,10.946-10.632,10.448,10.448,0,0,0-1.313-5.047l-8.571-15.409a1.215,1.215,0,0,0-2.125,0l-8.575,15.411a10.467,10.467,0,0,0-1.308,5.046A10.8,10.8,0,0,0,878.689,487.647Zm-7.511-14.491,7.511-13.5,7.508,13.5a7.993,7.993,0,0,1,1.006,3.861,8.52,8.52,0,0,1-17.027,0A7.989,7.989,0,0,1,871.178,473.156Z" transform="translate(-867.243 -455.433)" fill="#0f7f25" stroke="#197e2b" stroke-width="1"/>
</svg>
