<svg xmlns="http://www.w3.org/2000/svg" width="13.06" height="13.353" viewBox="0 0 13.06 13.353">
  <path id="Path_50" data-name="Path 50" d="M357.465,405.225a5.9,5.9,0,0,0-1.031-1.39,6.737,6.737,0,0,0-1.345-1.056,6.478,6.478,0,0,0-8.9,2.446,6.851,6.851,0,0,0,.024,6.734,6.664,6.664,0,0,0,2.4,2.425,6.442,6.442,0,0,0,8.829-2.429,6.507,6.507,0,0,0,.929-3.379,6.765,6.765,0,0,0-.909-3.351m-1.292,6.11a5,5,0,0,1-1.847,1.957,5.11,5.11,0,0,1-2.5.693,4.808,4.808,0,0,1-2.491-.681,5.068,5.068,0,0,1-1.052-.84,6.358,6.358,0,0,1-.807-1.133,5.56,5.56,0,0,1-.7-2.755,5.79,5.79,0,0,1,.656-2.715,5.2,5.2,0,0,1,1.859-1.973,4.746,4.746,0,0,1,5.05-.012,5.149,5.149,0,0,1,1.859,1.985,5.8,5.8,0,0,1,.673,2.715,5.588,5.588,0,0,1-.7,2.759" transform="translate(-345.314 -401.895)" fill="#fff"/>
</svg>
