<svg xmlns="http://www.w3.org/2000/svg" width="16.405" height="24.583" viewBox="0 0 16.405 24.583">
  <path id="Path_7" data-name="Path 7" d="M1267.646,577.565c4.247,0,7.7-3.831,7.7-8.54a9.367,9.367,0,0,0-.926-4.055l-5.712-10.359a1.215,1.215,0,0,0-2.128,0l-5.75,10.425a9.374,9.374,0,0,0-.888,3.988C1259.943,573.734,1263.4,577.565,1267.646,577.565Zm-4.651-11.413,4.651-8.43,4.615,8.365a6.859,6.859,0,0,1,.656,2.938c0,3.364-2.364,6.1-5.27,6.1s-5.27-2.737-5.27-6.1A6.878,6.878,0,0,1,1262.995,566.152Z" transform="translate(-1259.443 -553.483)" fill="#0f7f25" stroke="#197e2b" stroke-width="1"/>
</svg>
