<svg xmlns="http://www.w3.org/2000/svg" width="66.163" height="66.167" viewBox="0 0 66.163 66.167">
  <path id="Path_45" data-name="Path 45" d="M347.942,465.309a33.084,33.084,0,1,0-33.069-33.09,33.088,33.088,0,0,0,33.069,33.09m9.6-50.083h3.62l9.44,22.936V415.226h3.62v33.893h-3.652l-.139-.351-9.212-22.549v22.9h-3.677Zm-20.7,0h3.8v22.386a22.267,22.267,0,0,0,.534,6.2,4.265,4.265,0,0,0,1.557,2.246,4.077,4.077,0,0,0,4.618.02,4.86,4.86,0,0,0,1.447-2.441,15.9,15.9,0,0,0,.391-2.719c.094-1.268.143-2.9.143-4.855V415.226h3.587v21.22c0,3.852-.3,6.636-.9,8.274a9.224,9.224,0,0,1-2.584,3.909,6.239,6.239,0,0,1-4.292,1.472,8.3,8.3,0,0,1-4.353-1.158,7.038,7.038,0,0,1-3-3.6c-.636-1.569-.954-4.162-.954-7.9Zm-18.1,31.3a8.787,8.787,0,0,1-.872-3.986v-.77h3.713v.77a4.385,4.385,0,0,0,1.019,3.342,4.289,4.289,0,0,0,2.87.9,2.913,2.913,0,0,0,2.515-1.549,7.751,7.751,0,0,0,1.121-4.459,6.307,6.307,0,0,0-.937-3.62,13.784,13.784,0,0,0-3.029-2.894l-1.072-.766c-.7-.53-1.337-1.011-1.9-1.443a8.6,8.6,0,0,1-1.5-1.431,9.985,9.985,0,0,1-1.7-3.2,12.254,12.254,0,0,1-.587-3.929,11.545,11.545,0,0,1,1.777-6.448,6.217,6.217,0,0,1,5.653-2.755c2.3,0,3.982.583,5.005,1.745a6.089,6.089,0,0,1,1.431,3.995v.742h-3.84v-.783a2.831,2.831,0,0,0-.334-1.3,2.142,2.142,0,0,0-.954-.815,3.751,3.751,0,0,0-1.573-.31,2.644,2.644,0,0,0-2.49,1.439,7.73,7.73,0,0,0-.876,3.754,8.391,8.391,0,0,0,.4,2.678,6.149,6.149,0,0,0,1.141,2.005c.224.224.526.5.872.828l.163.147a20.477,20.477,0,0,0,1.606,1.28l1.292.946a22.55,22.55,0,0,1,2.6,2.225,8.3,8.3,0,0,1,1.639,2.319A11.778,11.778,0,0,1,333,440.245a13.848,13.848,0,0,1-.864,4.907,7.929,7.929,0,0,1-2.458,3.664,6.465,6.465,0,0,1-4.239,1.284,9.6,9.6,0,0,1-4.08-.791,5.5,5.5,0,0,1-2.613-2.784" transform="translate(-314.873 -399.142)" fill="#fff"/>
</svg>
