<svg xmlns="http://www.w3.org/2000/svg" width="32.566" height="50.695" viewBox="0 0 32.566 50.695">
  <path id="Path_67" data-name="Path 67" d="M319.338,1436.875c-3.324,4.292-13.632,18.461-13.632,29.114,0,13.891,7.78,15.5,13.632,15.5s13.632-1.607,13.632-15.5c0-10.662-10.308-24.824-13.632-29.114Zm0,47.263c-10.8,0-16.283-6.106-16.283-18.149,0-13.6,14.641-31.344,15.263-32.093a1.373,1.373,0,0,1,2.039,0c.623.749,15.264,18.5,15.264,32.093,0,12.043-5.478,18.149-16.284,18.149Z" transform="translate(-303.055 -1433.443)" fill="#0f7f25"/>
</svg>
