<svg xmlns="http://www.w3.org/2000/svg" width="52.23" height="54.513" viewBox="0 0 52.23 54.513">
  <path id="Path_102" data-name="Path 102" d="M49.907,55.144a24.433,24.433,0,0,0-16.5-16.9l.331-1.227a.807.807,0,0,0-1.559-.42l-.328,1.219a24.085,24.085,0,0,0-22.672,6.13,1.735,1.735,0,0,0-.446.775l-.7,2.613a.9.9,0,0,0,.627,1.1l8.307,2.285a.9.9,0,0,0,1-.4l.632-1.039.417,1.545a.9.9,0,0,0,.627.629L27.6,53.644,20.476,80.175a.807.807,0,0,0,.571.989.791.791,0,0,0,.21.028.808.808,0,0,0,.78-.6l7.122-26.521,7.947,2.186a.9.9,0,0,0,.878-.223l1.127-1.114.026,1.231a.89.89,0,0,0,.659.847l8.3,2.285a.908.908,0,0,0,.237.031.9.9,0,0,0,.447-.118l.332-.221.789-2.937A1.744,1.744,0,0,0,49.907,55.144Zm-1.921-.722L40.83,52.452a12.932,12.932,0,0,0-1.836-9.8A22.533,22.533,0,0,1,47.986,54.421ZM18.355,46.269l-7.181-1.976a22.15,22.15,0,0,1,13.679-5.54c-.256.123-.512.246-.761.388A12.925,12.925,0,0,0,18.355,46.269Zm6.539-5.727a9.559,9.559,0,0,1,7.322-.978h0c5.119,1.408,8.154,6.89,7.056,12.459L19.911,46.7A11.3,11.3,0,0,1,24.894,40.542Zm-8.026,8.476L9.779,47.067l.378-1.379,7.483,2.059ZM37.143,54.6,28.811,52.3,28.8,52.3h-.012l-8.32-2.289-.433-1.6,18.284,5.03Zm10.685,2.94L40.74,55.585l-.031-1.491L48.2,56.155Z" transform="translate(-17.045 -21.842) rotate(-15)" fill="#fff"/>
</svg>
