<svg xmlns="http://www.w3.org/2000/svg" width="14.845" height="17.426" viewBox="0 0 14.845 17.426">
  <path id="Path_53" data-name="Path 53" d="M332.928,418.083a2.655,2.655,0,0,0-3.285-.347,5.133,5.133,0,0,0-1.174,1.08,5.33,5.33,0,0,0-.473.766,3.353,3.353,0,0,0-.4-.778,2.942,2.942,0,0,0-1.174-1.109,2.827,2.827,0,0,0-2.866.012,3.908,3.908,0,0,0-1.092,1.031v-.97h-2.776v16.969h2.8v-8.682a14.168,14.168,0,0,1,.318-3.391,10.664,10.664,0,0,1,.4-1.133,3.121,3.121,0,0,1,.526-.836c.3-.391.583-.591.86-.591.057,0,.228,0,.489.261a1.852,1.852,0,0,1,.448.941,19.3,19.3,0,0,1,.175,3.583v9.848h2.808v-8.682a13.032,13.032,0,0,1,.346-3.493,4.344,4.344,0,0,1,.9-1.867c.457-.591.783-.591.893-.591a.592.592,0,0,1,.444.212,2.517,2.517,0,0,1,.457,1,18.223,18.223,0,0,1,.179,3.571v9.848h2.8V424.266a14.688,14.688,0,0,0-.4-4.121,4.667,4.667,0,0,0-1.215-2.062" transform="translate(-319.693 -417.312)" fill="#fff"/>
</svg>
