<svg xmlns="http://www.w3.org/2000/svg" width="44.968" height="13.506" viewBox="0 0 44.968 13.506">
  <path id="Path_66" data-name="Path 66" d="M298.829,1647.649c-11.173,0-22.484-2.609-22.484-7.6,0-1.62,1.217-3.918,7.012-5.664a1.326,1.326,0,1,1,.764,2.539c-4.054,1.222-5.126,2.579-5.126,3.126,0,1.678,7,4.944,19.833,4.944s19.833-3.266,19.833-4.944c0-.594-1.2-2.049-5.755-3.308a1.325,1.325,0,1,1,.706-2.554c5.038,1.392,7.7,3.42,7.7,5.862,0,4.986-11.311,7.6-22.484,7.6Z" transform="translate(-276.345 -1634.143)" fill="#0f7f25"/>
</svg>
