<svg xmlns="http://www.w3.org/2000/svg" width="10.41" height="17.849" viewBox="0 0 10.41 17.849">
  <path id="Path_43" data-name="Path 43" d="M321.934,417.313a4.447,4.447,0,0,0-3.766,2.356,12.234,12.234,0,0,0-1.459,6.587c0,2.914.481,5.063,1.459,6.551a4.163,4.163,0,0,0,7.5,0c.974-1.488,1.451-3.636,1.451-6.551a12.319,12.319,0,0,0-1.451-6.591,4.442,4.442,0,0,0-3.734-2.352m1.639,13.728c-.644,1.553-1.4,1.553-1.639,1.553s-1,0-1.651-1.565a15.108,15.108,0,0,1,0-9.562c.648-1.553,1.4-1.553,1.647-1.553s.995,0,1.639,1.553l0,.016a11.8,11.8,0,0,1,.774,4.773,11.935,11.935,0,0,1-.779,4.785" transform="translate(-316.709 -417.313)" fill="#fff"/>
</svg>
