<svg xmlns="http://www.w3.org/2000/svg" width="6.033" height="8.058" viewBox="0 0 6.033 8.058">
  <path id="Path_47" data-name="Path 47" d="M350.333,407.075a2.316,2.316,0,0,0,.848-.824,2.566,2.566,0,0,0,.42-1.39,2.359,2.359,0,0,0-.306-1.166,1.878,1.878,0,0,0-.844-.844,2.865,2.865,0,0,0-1.488-.306h-2.707V410.6h1.794v-3.261h.562a2.88,2.88,0,0,1,.424.705l1.268,2.519h1.985l-1.337-2.58a4.478,4.478,0,0,0-.62-.913m-.787-1.3a1.045,1.045,0,0,1-.925.367h-.55v-2.389h.624a1.148,1.148,0,0,1,.725.155,1.042,1.042,0,0,1,.289.371,1.633,1.633,0,0,1,.106.554,1.74,1.74,0,0,1-.269.942" transform="translate(-346.257 -402.546)" fill="#fff"/>
</svg>
