<svg xmlns="http://www.w3.org/2000/svg" width="14.303" height="33.888" viewBox="0 0 14.303 33.888">
  <path id="Path_46" data-name="Path 46" d="M312.248,404.237c-1.031-.774-2.654-1.149-4.952-1.149h-6.35v33.888h3.836V423.534h1.993a7.1,7.1,0,0,0,6.387-3.289,13.983,13.983,0,0,0,2.087-7.822,14.406,14.406,0,0,0-.73-4.846,7.07,7.07,0,0,0-2.27-3.338m-1.961,13.822c-.652,1.414-2.042,2.1-4.251,2.1H304.78v-13.79h2.6a3.27,3.27,0,0,1,3.175,1.52,10.067,10.067,0,0,1,.836,4.533,13.077,13.077,0,0,1-1.1,5.637" transform="translate(-300.945 -403.088)" fill="#fff"/>
</svg>
