<svg xmlns="http://www.w3.org/2000/svg" width="11.344" height="23.963" viewBox="0 0 11.344 23.963">
  <path id="Path_42" data-name="Path 42" d="M322.826,416.476a5.106,5.106,0,0,0-2.515-.607c-1.973,0-3.567,1.06-4.753,3.151-1.149,2.01-1.712,4.9-1.712,8.837,0,3.856.575,6.827,1.716,8.837,1.223,2.083,2.8,3.138,4.724,3.138a5.373,5.373,0,0,0,2.523-.587,4.338,4.338,0,0,0,1.72-1.891,5.5,5.5,0,0,0,.6-2.454v-.7h-2.686v.7a3.165,3.165,0,0,1-.505,1.736,1.733,1.733,0,0,1-1.577.66c-1.133,0-1.985-.8-2.6-2.458a25.111,25.111,0,0,1,0-13.953c.591-1.651,1.439-2.446,2.6-2.446a2.238,2.238,0,0,1,1.121.249,2.036,2.036,0,0,1,.7.848,3.2,3.2,0,0,1,.265,1.268v.668h2.177l.567-.086v-.563a5.948,5.948,0,0,0-.624-2.462,4.417,4.417,0,0,0-1.741-1.887" transform="translate(-313.846 -415.869)" fill="#fff"/>
</svg>
