<svg xmlns="http://www.w3.org/2000/svg" width="21.992" height="58.772" viewBox="0 0 21.992 58.772">
  <path id="Path_121" data-name="Path 121" d="M525.054,774.27h1.418v-2.745a1.536,1.536,0,0,1,1.536-1.536h1.39v-9.521a.985.985,0,0,1,.985-.985h6.885a.985.985,0,0,1,.985.985v1.023a1.506,1.506,0,1,0,0,3.012v5.486h1.39a1.536,1.536,0,0,1,1.536,1.536v2.745H542.6a2.226,2.226,0,0,1,2.226,2.225v39.534a2.226,2.226,0,0,1-2.226,2.226H525.054a2.225,2.225,0,0,1-2.225-2.226V776.5A2.225,2.225,0,0,1,525.054,774.27Zm11.391-8.5a3.31,3.31,0,0,1-1.032-4.483h-4.209v8.7h5.24Zm2.926,6.024H528.279v2.474h11.092Zm-14.735,44.234a.419.419,0,0,0,.418.418H542.6a.419.419,0,0,0,.419-.418V776.5a.419.419,0,0,0-.419-.418H525.054a.419.419,0,0,0-.418.418Z" transform="translate(-522.829 -759.482)" fill="#fff"/>
</svg>
