<svg xmlns="http://www.w3.org/2000/svg" width="18.746" height="35.817" viewBox="0 0 18.746 35.817">
  <path id="Path_41" data-name="Path 41" d="M325.9,407.642c-1.712-3.179-4.011-4.785-6.852-4.785s-5.128,1.606-6.84,4.777c-1.679,3.065-2.531,7.471-2.531,13.1,0,5.674.852,10.08,2.531,13.117,1.736,3.191,4.043,4.822,6.84,4.822s5.1-1.631,6.852-4.822c1.675-3.025,2.523-7.439,2.523-13.117,0-5.637-.852-10.044-2.523-13.093m-2.874,23.865c-1.015,2.556-2.315,3.807-3.978,3.807s-2.939-1.243-3.925-3.807a29.967,29.967,0,0,1-1.565-10.773,30.536,30.536,0,0,1,1.565-10.773c.986-2.552,2.266-3.787,3.925-3.787s2.963,1.235,3.978,3.791a30.614,30.614,0,0,1,1.557,10.769,30.081,30.081,0,0,1-1.557,10.773" transform="translate(-309.682 -402.857)" fill="#fff"/>
</svg>
