<svg xmlns="http://www.w3.org/2000/svg" width="16.405" height="24.535" viewBox="0 0 16.405 24.535">
  <path id="Path_8" data-name="Path 8" d="M561.686,578.092c4.247,0,7.7-3.831,7.7-8.54a9.414,9.414,0,0,0-.923-4.055l-5.715-10.359a1.265,1.265,0,0,0-2.129,0l-5.745,10.424a9.317,9.317,0,0,0-.893,3.99C553.983,574.261,557.438,578.092,561.686,578.092Zm-4.648-11.413,4.648-8.43,4.616,8.364a6.9,6.9,0,0,1,.654,2.94c0,3.364-2.364,6.1-5.27,6.1s-5.27-2.737-5.27-6.1A6.822,6.822,0,0,1,557.038,566.679Z" transform="translate(-553.483 -554.057)" fill="#0f7f25" stroke="#197e2b" stroke-width="1"/>
</svg>
