<svg xmlns="http://www.w3.org/2000/svg" width="16.613" height="26.209" viewBox="0 0 16.613 26.209">
  <path id="Path_11" data-name="Path 11" d="M1292.883,1060.854l-4.411,4.423v-19.825a1.216,1.216,0,1,0-2.432,0v19.825l-4.411-4.423a1.218,1.218,0,0,0-1.72,1.725l6.486,6.505a1.2,1.2,0,0,0,.089.081l.046.034c.016.012.032.025.05.036s.039.024.058.036l.043.026c.021.011.042.02.062.03l.045.021.063.023.05.017c.021.006.042.011.063.016l.053.013c.023,0,.047.008.07.011l.048.007a1.123,1.123,0,0,0,.241,0l.048-.007c.023,0,.047-.006.07-.011l.052-.013c.021-.005.042-.01.063-.016l.049-.017c.021-.007.043-.014.063-.023l.044-.02c.021-.01.043-.02.063-.031l.042-.025c.02-.012.04-.023.059-.036s.032-.023.048-.035.032-.023.047-.036a1.185,1.185,0,0,0,.089-.081h0l6.487-6.506a1.218,1.218,0,1,0-1.72-1.725Z" transform="translate(-1278.95 -1043.733)" fill="#0f7f25" stroke="#197e2b" stroke-width="1"/>
</svg>
